<svg xmlns="http://www.w3.org/2000/svg" width="60" height="52" viewBox="0 0 60 52" fill="none">
<path d="M1.76562 6.81515C1.76562 4.02691 4.02301 1.7666 6.80764 1.7666H53.1942C55.9788 1.7666 58.2362 4.02691 58.2362 6.81515V45.1841C58.2362 47.9723 55.9788 50.2326 53.1942 50.2326H6.80764C4.02301 50.2326 1.76562 47.9723 1.76562 45.1841V6.81515Z" fill="#DCE9F4"/>
<path fill-rule="evenodd" clip-rule="evenodd" d="M0 6.81554C0 3.05142 3.04747 0 6.80672 0H53.1933C56.9525 0 60 3.05142 60 6.81553V45.1845C60 48.9486 56.9525 52 53.1933 52H6.80672C3.04748 52 0 48.9486 0 45.1845V6.81554ZM6.80672 3.53398C4.99672 3.53398 3.52941 5.00318 3.52941 6.81554V45.1845C3.52941 46.9968 4.99671 48.466 6.80672 48.466H53.1933C55.0033 48.466 56.4706 46.9968 56.4706 45.1845V6.81553C56.4706 5.00318 55.0033 3.53398 53.1933 3.53398H6.80672Z" fill="#146EB4"/>
<path fill-rule="evenodd" clip-rule="evenodd" d="M18.6654 15.6631C19.171 15.1568 19.9318 15.0061 20.5919 15.2815L40.7599 23.6947C41.4376 23.9774 41.8697 24.6506 41.845 25.3853C41.8203 26.1199 41.3439 26.7625 40.6488 26.9989L32.6898 29.7057L29.9865 37.675C29.7504 38.371 29.1087 38.848 28.375 38.8727C27.6413 38.8975 26.9689 38.4648 26.6866 37.7863L18.2842 17.5921C18.0092 16.9312 18.1597 16.1694 18.6654 15.6631ZM23.1902 20.1938L28.1474 32.108L29.6276 27.7444C29.804 27.2245 30.2118 26.8162 30.731 26.6396L35.089 25.1575L23.1902 20.1938Z" fill="#146EB4"/>
</svg>