<svg xmlns="http://www.w3.org/2000/svg" width="156" height="44" fill="none" viewBox="0 0 156 44">
    <path fill="#000" d="M69.711 10.85v21.155c.054.382-.216.709-.594.763h-2.753c-.379.055-.703-.218-.757-.6V30.86c-1.133 1.472-2.861 2.345-5.237 2.345-4.32 0-7.83-3.708-7.83-8.56 0-4.853 3.564-8.56 7.83-8.56 2.322 0 4.05.872 5.238 2.344v-7.633c-.055-.382.215-.71.593-.764h2.754c.378-.054.702.218.756.6.054.109.054.164 0 .218zM65.608 24.7c0-2.508-1.998-4.471-4.428-4.471-2.484 0-4.428 2.017-4.428 4.47 0 2.509 1.998 4.472 4.428 4.472 2.43 0 4.428-1.963 4.428-4.471zM84.777 16.575c.378-.055.702.218.756.6v14.83c.054.382-.216.709-.594.763H82.13c-.378.055-.702-.218-.756-.6v-1.09c-.918 1.363-2.376 2.127-4.374 2.127-2.97 0-5.238-2.29-5.238-6.27v-9.597c-.054-.381.216-.709.594-.763h2.808c.378-.055.702.218.756.6v9.433c0 1.853 1.08 2.725 2.538 2.725 1.62 0 2.916-.927 2.916-3.38v-8.615c-.054-.381.216-.709.594-.763h2.808zM101.408 32.823h-3.024c-.378 0-.702-.164-.918-.49l-5.291-6.87v6.542c.053.382-.216.709-.594.763h-2.808c-.378.055-.702-.218-.756-.6V10.85c-.054-.382.216-.709.594-.763h2.807c.378-.055.703.218.756.6v13.031l4.968-6.652c.216-.328.54-.491.918-.491h3.078c.648 0 .864.436.486.927l-5.4 7.088 5.724 7.251c.324.546.108.982-.54.982zM109.94 16.139c3.564 0 6.534 2.126 6.534 6.379v9.541c.054.382-.216.71-.594.764H113.18c-.378.054-.702-.218-.756-.6V31.405c-.918 1.145-2.322 1.854-4.374 1.854-2.862 0-5.4-1.69-5.4-5.07 0-3.381 2.538-5.126 5.4-5.126 1.566-.109 3.132.436 4.374 1.418v-1.745c0-1.908-.972-2.726-2.484-2.726-1.188 0-2.106.49-2.376 1.363-.162.436-.324.709-.81.709h-2.538c-.378.054-.702-.218-.756-.6v-.218c.378-3.271 3.186-5.125 6.48-5.125zm2.484 11.995c0-1.254-1.134-2.018-2.916-2.018s-2.7.873-2.7 2.018c0 1.145.864 2.017 2.7 2.017 1.836 0 2.916-.818 2.916-2.017zM125.653 16.139c3.564 0 6.534 2.126 6.534 6.379v9.541c.054.382-.216.71-.594.764H128.893c-.378.054-.702-.218-.756-.6V31.405c-.918 1.145-2.322 1.854-4.374 1.854-2.862 0-5.4-1.69-5.4-5.07 0-3.381 2.538-5.126 5.4-5.126 1.566-.109 3.132.436 4.374 1.418v-1.745c0-1.908-.972-2.726-2.484-2.726-1.188 0-2.106.49-2.376 1.363-.162.436-.324.709-.81.709h-2.592c-.378.054-.702-.218-.756-.6v-.218c.432-3.271 3.24-5.125 6.534-5.125zm2.484 11.995c0-1.254-1.134-2.018-2.916-2.018s-2.7.873-2.7 2.018c0 1.145.864 2.017 2.7 2.017 1.836 0 2.916-.818 2.916-2.017zM142.824 16.139c2.97 0 5.238 2.344 5.238 6.27v9.596c.054.382-.216.709-.594.763h-2.808c-.378.055-.702-.218-.756-.6v-9.432c0-1.854-1.08-2.726-2.537-2.726-1.62 0-2.916.927-2.916 3.38v8.615c.054.382-.216.709-.594.763h-2.808c-.378.055-.702-.218-.756-.6v-14.83c-.054-.381.216-.709.594-.763h2.808c.378-.055.702.218.756.6v1.036c.864-1.309 2.376-2.072 4.373-2.072z"/>
    <path fill="#146EB4" d="M29.915 16.411c-.324 4.526-4.266 7.906-8.748 7.58-3.996-.328-7.182-3.545-7.506-7.58-.107-.927.595-1.744 1.512-1.853.918-.11 1.728.6 1.836 1.526v.055c.216 2.671 2.538 4.689 5.184 4.416 2.322-.218 4.212-2.072 4.374-4.416.054-.927.864-1.636 1.782-1.527.972.055 1.62.873 1.566 1.8z"/>
    <path fill="#146EB4" d="M21.761 0C9.774 0 0 9.869 0 22.027 0 34.186 9.774 44 21.761 44c11.988 0 21.761-9.869 21.761-21.973C43.576 9.87 33.802 0 21.762 0c.053 0 .053 0 0 0zm11.664 30.315c0 1.799-1.404 3.217-3.186 3.217H13.338c-1.782 0-3.186-1.472-3.186-3.217v-16.63c0-1.799 1.458-3.217 3.186-3.217h16.9c1.783 0 3.187 1.418 3.187 3.217v16.63z"/>
    <path fill="#000" d="M152.004 8.124c-2.214 0-3.942 1.8-3.942 3.98 0 2.181 1.782 3.98 3.996 3.98 2.16 0 3.942-1.799 3.942-3.98 0-2.18-1.782-3.98-3.996-3.98zm0 .654c1.836 0 3.348 1.527 3.348 3.38 0 1.854-1.512 3.381-3.348 3.381-1.836 0-3.348-1.527-3.348-3.38 0-1.909 1.512-3.38 3.348-3.38zm-1.242 1.527v3.707h.594V12.65h.81l.864 1.363h.594l-.864-1.417.27-.055c.162-.054.324-.163.432-.272.108-.11.162-.218.216-.382.054-.11.054-.273.054-.382 0-.109 0-.272-.054-.381-.054-.164-.108-.273-.216-.382-.108-.109-.27-.218-.432-.273-.216-.109-.486-.163-.702-.109h-1.566v-.054zm.648.49H152.544c.108 0 .216.055.27.11.108.054.162.109.216.163.054.11.108.218.108.327 0 .11 0 .218-.108.327-.054.11-.108.164-.216.219l-.324.109c-.108 0-.216.054-.324 0h-.81l.054-1.255z"/>
</svg>