<svg xmlns="http://www.w3.org/2000/svg" width="60" height="60" viewBox="0 0 60 60" fill="none">
<path d="M48.4016 51.9327L35.7965 57.9831H28.7377L18.6537 55.9663L10.5865 48.4032L3.02344 38.3192L3.52764 26.2184L6.04865 15.6301L13.6117 7.05871L24.1999 3.5293H35.2923L45.3764 7.05871L53.9478 17.6469L57.9814 28.7394L54.9562 40.8402L48.4016 51.9327Z" fill="#146EB4" fill-opacity="0.15"/>
<path fill-rule="evenodd" clip-rule="evenodd" d="M30.001 1.66128e-08C46.5691 0.00054706 60 13.4318 60 30C60 46.5685 46.5685 60 30 60C13.4315 60 0 46.5685 0 30C0 13.4315 13.4315 0 30 0C30.0003 0 30.0007 1.66128e-08 30.001 1.66128e-08ZM25.9419 3.83854C13.8175 5.70389 4.40606 15.7961 3.5873 28.2353H17.0083C17.5137 19.3815 20.5823 10.8673 25.9419 3.83854ZM17.0091 31.7647H3.5873C4.40739 44.2242 13.8483 54.3291 26.0013 56.1705C20.6769 49.1031 17.5245 40.6428 17.0091 31.7647ZM34.0005 56.1703C46.1526 54.3281 55.5926 44.2236 56.4127 31.7647H42.9924C42.4771 40.6427 39.3247 49.1029 34.0005 56.1703ZM39.4566 31.7647C38.9059 40.4965 35.5844 48.7882 30.0008 55.5423C24.4172 48.7882 21.0957 40.4965 20.545 31.7647H39.4566ZM39.4566 28.2353H20.5439C21.0859 19.4742 24.346 11.1131 29.9849 4.43856C35.5781 11.1961 38.9054 19.4953 39.4566 28.2353ZM42.9924 28.2353H56.4127C55.5926 15.7764 46.1526 5.67192 34.0005 3.82974C39.3247 10.8971 42.4771 19.3573 42.9924 28.2353Z" fill="#146EB4"/>
</svg>