<svg xmlns="http://www.w3.org/2000/svg" width="22" height="22" fill="none" viewBox="0 0 22 22">
    <path fill="#4D4D4D" d="M11 1.718c.534 0 .984.396 1.055.921l.01.145v7.151h7.151c.55 0 1.001.415 1.06.949l.006.116c0 .534-.396.984-.938 1.057l-.128.008h-7.151v7.151c0 .55-.415 1.002-.949 1.06l-.116.006c-.534 0-.984-.396-1.057-.938l-.008-.128v-7.152l-7.151.001c-.55 0-1.001-.415-1.06-.949L1.719 11c0-.534.396-.984.938-1.057l.128-.008h7.15V2.784c0-.55.416-1.001.95-1.06L11 1.719z"/>
    <path fill="#4D4D4D" fill-rule="evenodd" d="M11 1.443c.672 0 1.238.498 1.328 1.16l.002.018.01.163V9.66h6.876c.691 0 1.26.523 1.333 1.194l.001.015.007.131c0 .675-.501 1.239-1.176 1.33h-.01l-.155.01H12.34v6.876c0 .691-.523 1.26-1.194 1.333l-.015.001-.131.007c-.675 0-1.239-.501-1.33-1.176l-.001-.01-.01-.155V12.34l-6.875.001c-.691 0-1.26-.523-1.333-1.194l-.001-.015L1.443 11c0-.675.501-1.239 1.176-1.33h.01l.155-.01H9.66V2.784c0-.691.522-1.26 1.194-1.333l.015-.001.131-.007zM9.935 9.935H2.784l-.128.008c-.542.073-.938.523-.938 1.057l.007.116c.058.534.51.95 1.059.95l7.15-.002v7.152l.009.128c.073.542.523.938 1.057.938l.116-.007c.534-.057.95-.51.95-1.059l-.001-7.151h7.151l.128-.008c.542-.073.938-.523.938-1.057l-.007-.116c-.058-.534-.51-.95-1.059-.95l-7.151.001V2.784l-.01-.145c-.07-.525-.52-.92-1.055-.92l-.116.006c-.534.058-.95.51-.95 1.059v7.15z" clip-rule="evenodd"/>
</svg>