<svg xmlns="http://www.w3.org/2000/svg" width="60" height="60" viewBox="0 0 60 60" fill="none">
<path d="M30.0009 58.2352C45.5948 58.2352 58.2362 45.5939 58.2362 29.9999C58.2362 14.406 45.5948 1.76465 30.0009 1.76465C14.407 1.76465 1.76562 14.406 1.76562 29.9999C1.76562 45.5939 14.407 58.2352 30.0009 58.2352Z" fill="#DCE9F4"/>
<path fill-rule="evenodd" clip-rule="evenodd" d="M30 3.52941C15.3807 3.52941 3.52941 15.3807 3.52941 30C3.52941 44.6193 15.3807 56.4706 30 56.4706C44.6193 56.4706 56.4706 44.6193 56.4706 30C56.4706 15.3807 44.6193 3.52941 30 3.52941ZM0 30C0 13.4315 13.4315 0 30 0C46.5685 0 60 13.4315 60 30C60 46.5685 46.5685 60 30 60C13.4315 60 0 46.5685 0 30Z" fill="#146EB4"/>
<path d="M37.7319 24.1816H36.002C35.7288 22.998 35.2735 21.9964 34.5451 21.0859H37.7319C38.5514 21.0859 39.2798 20.3575 39.2798 19.5381C39.2798 18.7186 38.5514 17.9902 37.7319 17.9902H28.3537H22.0713C21.2518 17.9902 20.5234 18.7186 20.5234 19.5381C20.5234 20.3575 21.2518 21.0859 22.0713 21.0859H28.3537C30.3568 21.0859 32.0868 22.3606 32.7241 24.1816H22.1623C21.3429 24.1816 20.6145 24.91 20.6145 25.7295C20.6145 26.5489 21.3429 27.2773 22.1623 27.2773H32.8152C32.1778 29.0983 30.4479 30.373 28.4448 30.373H22.1623C21.9802 30.373 21.7981 30.373 21.525 30.4641C21.1608 30.6462 20.7966 30.9193 20.7055 31.2835C20.5234 31.6477 20.5234 32.103 20.7055 32.4672C20.7966 32.6493 20.8876 32.8314 21.0697 33.0135L33.5436 45.4874C33.8167 45.7605 34.272 45.9426 34.6362 45.9426C35.0004 45.9426 35.4556 45.7605 35.7288 45.4874C36.3661 44.85 36.3661 43.8485 35.7288 43.3022L25.8954 33.5598H28.3537C32.0868 33.5598 35.2736 30.9193 36.002 27.2773H37.7319C38.5514 27.2773 39.2798 26.5489 39.2798 25.7295C39.2798 24.91 38.6424 24.1816 37.7319 24.1816Z" fill="#146EB4"/>
<path fill-rule="evenodd" clip-rule="evenodd" d="M20.4219 19.5374C20.4219 18.6622 21.1954 17.8887 22.0706 17.8887H37.7312C38.6063 17.8887 39.3799 18.6622 39.3799 19.5374C39.3799 20.4125 38.6063 21.1861 37.7312 21.1861H34.7506C35.4003 22.0456 35.8198 22.9873 36.0811 24.0801H37.7312C38.7012 24.0801 39.3799 24.8575 39.3799 25.7288C39.3799 26.6039 38.6063 27.3775 37.7312 27.3775H36.0835C35.3149 31.0243 32.1068 33.6599 28.353 33.6599H26.1397L35.7965 43.2273C36.4813 43.8172 36.4719 44.8854 35.7994 45.5579C35.5071 45.8502 35.0261 46.0427 34.6355 46.0427C34.2448 46.0427 33.7638 45.8502 33.4716 45.5579L20.9977 33.0841C20.804 32.8904 20.7068 32.696 20.6162 32.5148L20.6146 32.5116C20.42 32.1222 20.4183 31.6384 20.6098 31.2475C20.7167 30.8426 21.1148 30.5554 21.4792 30.3732L21.4856 30.37L21.4924 30.3677C21.7811 30.2715 21.9763 30.2715 22.1612 30.2715H28.4441C30.354 30.2715 32.0101 29.0869 32.6699 27.3775H22.1616C21.2865 27.3775 20.5129 26.6039 20.5129 25.7288C20.5129 24.8536 21.2865 24.0801 22.1616 24.0801H32.5789C31.919 22.3707 30.2629 21.1861 28.353 21.1861H22.0706C21.1954 21.1861 20.4219 20.4125 20.4219 19.5374ZM22.0706 18.0904C21.3068 18.0904 20.6236 18.7736 20.6236 19.5374C20.6236 20.3011 21.3068 20.9844 22.0706 20.9844H28.353C30.3997 20.9844 32.1673 22.2869 32.8186 24.1476L32.8656 24.2818H22.1616C21.3979 24.2818 20.7146 24.965 20.7146 25.7288C20.7146 26.4925 21.3979 27.1758 22.1616 27.1758H32.9566L32.9097 27.3099C32.2584 29.1707 30.4908 30.4732 28.4441 30.4732H22.1616C21.984 30.4732 21.8165 30.4732 21.5629 30.5568C21.2047 30.737 20.8816 30.9914 20.8026 31.3073L20.8 31.318L20.795 31.3279C20.6271 31.6637 20.6271 32.0856 20.795 32.4214C20.886 32.6034 20.9709 32.7721 21.1403 32.9415L33.6142 45.4153C33.8682 45.6693 34.2977 45.841 34.6355 45.841C34.9732 45.841 35.4027 45.6693 35.6568 45.4153C36.2581 44.814 36.2495 43.8812 35.6625 43.378L35.6569 43.3733L25.6496 33.4582H28.353C32.0376 33.4582 35.1833 30.8521 35.9023 27.2568L35.9186 27.1758H37.7312C38.4949 27.1758 39.1782 26.4925 39.1782 25.7288C39.1782 24.9611 38.5821 24.2818 37.7312 24.2818H35.921L35.903 24.2036C35.6328 23.0327 35.1835 22.0454 34.4657 21.1482L34.3346 20.9844H37.7312C38.4949 20.9844 39.1782 20.3011 39.1782 19.5374C39.1782 18.7736 38.4949 18.0904 37.7312 18.0904H22.0706Z" fill="#146EB4"/>
</svg>