<svg xmlns="http://www.w3.org/2000/svg" width="54" height="54" viewBox="0 0 54 54" fill="none">
<path d="M46.5738 1.83496H7.42817C4.33966 1.83496 1.83594 4.3387 1.83594 7.42722V46.573C1.83594 49.6616 4.33966 52.1653 7.42817 52.1653H46.5738C49.6623 52.1653 52.166 49.6616 52.166 46.573V7.42722C52.166 4.3387 49.6623 1.83496 46.5738 1.83496Z" fill="#146EB4" fill-opacity="0.15"/>
<path fill-rule="evenodd" clip-rule="evenodd" d="M7.42718 3.6699C5.3521 3.6699 3.6699 5.3521 3.6699 7.42718V46.5728C3.6699 48.6479 5.35209 50.3301 7.42718 50.3301H46.5728C48.6479 50.3301 50.3301 48.6479 50.3301 46.5728V7.42718C50.3301 5.35209 48.6479 3.6699 46.5728 3.6699H7.42718ZM0 7.42718C0 3.32526 3.32526 0 7.42718 0H46.5728C50.6747 0 54 3.32526 54 7.42718V46.5728C54 50.6747 50.6747 54 46.5728 54H7.42718C3.32526 54 0 50.6747 0 46.5728V7.42718Z" fill="#146EB4"/>
<path fill-rule="evenodd" clip-rule="evenodd" d="M52.166 20.4437H1.83594V16.7764H52.166V20.4437Z" fill="#146EB4"/>
<path fill-rule="evenodd" clip-rule="evenodd" d="M20.4473 18.6123V52.1659H16.7773V18.6123H20.4473Z" fill="#146EB4"/>
</svg>