<svg xmlns="http://www.w3.org/2000/svg" width="74" height="50" viewBox="0 0 74 50" fill="none">
<path d="M8.92578 2H47.9692V20.3996H66.9332L71.3953 26.1494V41.0991H63.5866" stroke="#146EB4" stroke-width="4" stroke-linecap="round" stroke-linejoin="round"/>
<path d="M8.92578 2H47.9692V20.3996H66.9332L71.3953 26.1494V41.0991H63.5866" stroke="#146EB4" stroke-width="4" stroke-linecap="round" stroke-linejoin="round"/>
<path d="M47.6094 2H22.621L13.1016 40.7358H20.2411C20.8361 37.7095 20.8361 34.6833 27.3807 34.6833C32.6163 34.6833 33.9253 38.7183 33.9253 40.7358H48.7993C48.9977 38.5165 50.7032 34.1991 55.9389 34.6833C61.1746 35.1675 62.8801 38.92 63.0784 40.7358H72.0029V26.2098L66.6482 20.1574H47.6094V2Z" fill="#146EB4" fill-opacity="0.3"/>
<line x1="47.0898" y1="40.7998" x2="35.4725" y2="40.7998" stroke="#146EB4" stroke-width="4" stroke-linecap="round"/>
<line x1="19.1172" y1="40.7998" x2="7.4998" y2="40.7998" stroke="#146EB4" stroke-width="4" stroke-linecap="round"/>
<line x1="27.0039" y1="10.8984" x2="6.4623" y2="10.8984" stroke="#146EB4" stroke-width="4" stroke-linecap="round"/>
<line x1="22.543" y1="20.0996" x2="2.00137" y2="20.0996" stroke="#146EB4" stroke-width="4" stroke-linecap="round"/>
<line x1="18.0898" y1="29.3008" x2="4.24141" y2="29.3008" stroke="#146EB4" stroke-width="4" stroke-linecap="round"/>
<ellipse cx="55.783" cy="41.1" rx="6.69317" ry="6.89984" stroke="#146EB4" stroke-width="4" stroke-linecap="round"/>
<ellipse cx="26.783" cy="41.1" rx="6.69317" ry="6.89984" stroke="#146EB4" stroke-width="4" stroke-linecap="round"/>
<path d="M47.9766 6.59863H60.2474L66.9405 20.3983" stroke="#146EB4" stroke-width="4" stroke-linecap="round" stroke-linejoin="round"/>
</svg>